<svg width="118" height="118" viewBox="0 0 118 118" fill="none" xmlns="http://www.w3.org/2000/svg">
<g clip-path="url(#clip0)">
<path d="M64.5883 34.5519C64.5883 34.5519 63.9443 40.2976 58.9803 40.2976C54.3998 40.2976 53.5148 34.5181 53.5148 34.5181L53.5719 28.6562H64.5521L64.5883 34.5519Z" fill="#F57566"/>
<path d="M39.8556 90.9651L39.9355 106.354C39.9355 110.323 43.0152 113.545 46.8213 113.545H70.4219C74.228 113.545 77.3077 110.323 77.3077 106.354L77.2284 90.9651H39.8556Z" fill="#171636"/>
<path d="M77.2543 92.0628L81.5066 43.161C81.6449 39.0402 79.9025 36.8547 77.6101 35.9255C73.8366 34.3988 64.2927 34.5181 64.2927 34.5181L58.9262 39.9842L53.8048 34.5181C53.8048 34.5181 44.7742 33.9729 40.3055 35.8345C38.0236 36.784 35.5376 38.5811 35.8117 43.3441C35.8117 43.3441 39.1587 77.3644 39.8599 92.1107L77.2543 92.0628Z" fill="#8FABDF"/>
<path d="M68.1184 28.3722C67.7847 29.2007 61.4982 33.9041 58.7288 33.8654C55.8852 33.8236 50.1419 28.6101 49.786 27.6575C48.831 25.1051 47.4506 14.836 48.3283 10.8234C49.6564 4.75749 53.5719 1.56842 59.5524 1.65446C65.0996 1.73436 68.8387 4.22157 70.1736 9.91999C71.294 14.7113 69.4871 24.973 68.1184 28.3722Z" fill="#F68371"/>
<path d="M70.6715 107.87H88.9044C92.0338 107.87 93.4934 109.975 93.4934 112.579C93.4934 115.178 92.0338 117.283 88.9044 117.283H70.6715V107.87Z" fill="#698ED1"/>
<path d="M73.7456 117.284L75.7583 107.933C75.7583 107.933 40.8518 90.9516 28.4748 86.883C19.996 84.0953 16.6041 82.0764 12.8139 91.4008C9.61995 99.2577 12.4151 101.157 18.4995 103.319C28.9093 107.02 60.4884 117.284 60.4884 117.284H73.7456Z" fill="#14122C"/>
<path d="M41.9207 108.173H23.6878C20.5584 108.173 19.0988 110.356 19.0988 113.055C19.0988 115.749 20.5584 117.932 23.6878 117.932H41.9207V108.173Z" fill="#698ED1"/>
<path d="M88.833 97.9609L38.9246 108.065L38.9571 117.932L92.389 118.006C108.503 118.003 107.156 112.773 106.258 105.674C105.203 97.3303 102.742 95.8855 88.833 97.9609Z" fill="#171636"/>
<path d="M80.8956 107.67C80.3111 108.463 78.5774 110.856 78.5774 110.856C77.3463 112.371 75.6347 112.066 74.4099 111.211C73.8408 110.812 72.7591 109.457 73.1623 108.201C73.8266 106.139 76.127 103.81 76.1147 103.799C76.0729 103.758 74.0221 104.683 73.1678 104.683C73.1678 104.683 72.4893 104.657 72.3117 104.061C72.1709 103.588 72.402 103.087 72.8697 102.927L75.1259 102.158C75.3016 102.065 80.0905 100.357 80.5336 98.6388L83.8296 100.932C83.8296 100.932 83.5143 100.795 82.7916 103.302C82.4597 104.453 81.6097 106.7 80.8956 107.67Z" fill="#F68371"/>
<path d="M85.6588 78.1879L79.1393 100.204L83.0253 102.324C83.0253 102.324 91.1261 88.0139 95.5155 77.8339L85.6588 78.1879Z" fill="#F68371"/>
<path d="M88.3782 69.0024L84.0017 83.1206L92.0313 86.1271C94.3888 80.7507 98.4727 72.0833 98.5219 69.8001C98.6079 65.817 89.23 50.512 86.6002 44.9992C81.9877 35.3293 74.4265 35.1019 74.4265 35.1019C74.4265 35.1019 79.4925 41.4795 80.4728 49.7702C81.0837 54.9352 88.4009 69.003 88.4009 69.003L88.3782 69.0024Z" fill="#698ED1"/>
<path d="M92.5211 84.7043C93.0631 84.9108 93.3262 85.5395 93.1092 86.1056L92.797 86.9187C92.5801 87.4847 91.9636 87.776 91.4222 87.5683L83.6102 84.5777C83.0688 84.3706 82.8051 83.7419 83.0233 83.1759L83.3343 82.3646C83.5518 81.7967 84.1677 81.5048 84.7097 81.7131L92.5211 84.7043Z" fill="#698ED1"/>
<path d="M38.8152 107.609C39.4279 108.38 41.2465 110.709 41.2465 110.709C42.531 112.179 44.2315 111.813 45.4232 110.914C45.9782 110.495 47.0113 109.102 46.5626 107.862C45.8239 105.826 43.4418 103.581 43.4528 103.568C43.4934 103.526 45.5768 104.377 46.4311 104.346C46.4311 104.346 47.1078 104.296 47.2639 103.693C47.3874 103.216 47.1385 102.723 46.6646 102.581L44.3827 101.894C44.2032 101.806 39.3566 100.271 38.8521 98.5712L35.6403 100.98C35.6403 100.98 35.9519 100.832 36.7631 103.311C37.1362 104.45 38.066 106.666 38.8152 107.609Z" fill="#F68371"/>
<path d="M21.9608 75.7456C26.2789 85.7215 36.4945 102.343 36.4945 102.343L40.3024 100.084L32.1309 75.7456H21.9608Z" fill="#F68371"/>
<path d="M29.9467 69.2353L34.8278 83.1869L26.9125 86.4799C24.362 81.1914 19.969 72.6769 19.8374 70.3956C19.6082 66.4199 27.8596 50.504 30.8594 45.1829C36.1718 35.7589 42.5512 35.1407 42.5512 35.1407C42.5512 35.1407 37.3801 40.946 37.146 49.7524C37.0083 54.945 29.9234 69.2371 29.9234 69.2371L29.9467 69.2353Z" fill="#698ED1"/>
<path d="M26.3703 85.0749C25.8362 85.3017 25.5959 85.9384 25.8337 86.4971L26.1748 87.2973C26.4121 87.8553 27.0377 88.1257 27.5724 87.8983L35.2713 84.6287C35.8054 84.4026 36.0457 83.7652 35.8078 83.2072L35.4667 82.4064C35.2295 81.8477 34.6032 81.5785 34.0685 81.8053L26.3703 85.0749Z" fill="#698ED1"/>
<path d="M61.0821 11.3938C57.3485 13.9633 55.7881 13.8318 51.0742 11.7705C50.424 11.4872 49.3577 13.4422 48.6319 17.4941L47.1796 16.6417C47.1796 16.6417 45.3439 0.78175 59.6323 0.78175C59.6323 0.78175 72.4451 0.00307193 71.0672 17.3116L69.7139 17.609C69.7139 17.609 68.8437 12.1835 67.5377 10.6034C67.5377 10.6034 65.3258 8.47449 61.0821 11.3938Z" fill="#171636"/>
<path d="M48.9705 21.3187C48.9705 21.3187 50.869 26.3441 53.1165 26.5494C55.3653 26.7553 55.7279 24.8667 58.7737 24.8322C59.9291 24.8193 60.95 24.6952 63.4519 26.4467C65.1162 27.6108 67.4652 26.4351 69.2063 21.5012L70.3912 22.1195C70.3912 22.1195 70.511 41.3049 59.3416 41.3049C48.1728 41.3049 48.2459 26.3318 47.7377 21.7298L48.9705 21.3187Z" fill="#171636"/>
<path d="M68.5751 19.5696C68.3883 21.1152 69.5333 22.4175 70.5633 22.53C71.5952 22.6419 72.1231 21.5203 72.3106 19.9746C72.498 18.4289 72.1225 17.0965 71.0912 16.9846C70.0593 16.8728 68.7607 18.0239 68.5751 19.5696Z" fill="#F68371"/>
<path d="M49.6121 19.2985C49.7492 20.8485 48.563 22.1176 47.5293 22.2C46.4944 22.2823 46.0027 21.146 45.865 19.596C45.728 18.0454 46.1453 16.724 47.1796 16.6417C48.2146 16.5593 49.4751 17.7492 49.6121 19.2985Z" fill="#F68371"/>
<path d="M55.6652 27.8511C55.6652 27.8511 58.9513 25.5679 62.2934 27.7472C62.2934 27.7472 61.473 29.9265 59.0073 29.9265C59.0073 29.9265 56.2681 29.7698 55.6652 27.8511Z" fill="#F68371"/>
</g>
<defs>
<clipPath id="clip0">
<rect width="118" height="118" fill="white"/>
</clipPath>
</defs>
</svg>
